<?xml version="1.0" encoding="utf-8"?>
<!-- Generator: Adobe Illustrator 24.0.3, SVG Export Plug-In . SVG Version: 6.00 Build 0)  -->
<svg version="1.1" id="Layer_1" xmlns="http://www.w3.org/2000/svg" xmlns:xlink="http://www.w3.org/1999/xlink" x="0px" y="0px"
	 viewBox="0 0 120 120" style="enable-background:new 0 0 120 120;" xml:space="preserve">
<style type="text/css">
	.st0{fill:#15168F;}
</style>
<path id="Path_1175" class="st0" d="M1.6,85.6c1.1,3.1,2.7,5.3,5,7.6c1.1,1.1,2.3,1.9,3.8,2.7c2.7,1.5,5.3,2.3,8.4,2.7
	c8.4,0.8,16.8-0.8,24.4-4.6c2.7-1.1,5.3-3.1,7.6-4.6c3.4-2.3,6.5-5,9.2-8c2.7,3.1,5.7,5.7,9.2,8c2.3,1.9,5,3.4,7.6,4.6
	c7.6,3.8,16,5.3,24.4,4.6c3.1-0.4,5.7-1.1,8.4-2.7c1.1-0.8,2.7-1.5,3.8-2.7c2.3-1.9,3.8-4.6,5-7.6c1.9-5.7,1.1-12.2-2.3-17.6
	c-1.5-1.9-3.1-3.8-4.6-5.3c-1.9-1.9-3.4-3.4-4.6-4.6c0,0-27.1-26.7-36.2-34c-6.1-5-14.9-5-21.4,0c-9.2,7.2-36.2,34-36.2,34
	c-1.1,1.1-2.7,2.7-4.6,4.6c-1.5,1.5-3.1,3.4-4.6,5.3C0.5,73.4-0.3,79.5,1.6,85.6 M60,28.8c5.7,0.4,10.3,5.3,9.9,11.4v0.4
	c0,2.3-0.4,5-1.5,7.2c-0.8,1.9-1.5,3.8-2.3,5.7c-0.8,1.5-1.5,3.1-2.7,5.3c-1.1,1.9-1.9,3.4-3.1,5.3L60,64.6l-0.4-0.4
	c-1.1-1.5-2.3-3.4-3.1-5.3c-1.1-2.3-2.3-4.2-2.7-5.3c-0.8-1.9-1.5-3.8-2.3-5.7c-0.8-2.3-1.1-4.6-1.5-7.2c-0.8-5.7,3.4-11.1,9.5-11.8
	C59.6,29.1,59.6,29.1,60,28.8 M107.3,74.2c1.1,2.3,1.1,5,0,7.2c-0.4,1.1-1.5,1.9-2.3,2.7c-4.2,3.1-14.5,3.1-24.4-1.1
	c-5.3-2.3-10.3-5.7-14.5-9.9c3.1-5,5.7-10.3,8-15.6c0.8-1.5,1.1-3.1,1.1-3.1c0.4-0.8,0.8-1.9,1.1-3.1c0.8-2.3,1.1-5,1.5-7.2
	C92.8,57.4,106.2,70.4,107.3,74.2 M12.3,74.2c1.1-3.8,14.5-16.8,29-30.5c0.4,2.7,0.8,5,1.5,7.2c0.4,1.5,0.8,2.7,1.1,3.1
	c0,0,0.8,1.5,1.1,3.1c2.3,5.3,5,10.7,8,15.6c-4.2,4.2-9.2,7.6-14.5,9.9c-9.9,4.2-20.2,4.2-24.4,1.1c-1.1-0.8-1.9-1.5-2.3-2.7
	C11.5,78.7,11.5,76.5,12.3,74.2"/>
</svg>
